<?xml version="1.0" encoding="iso-8859-1"?>
<!DOCTYPE svg PUBLIC "-//W3C//DTD SVG 1.1//EN" "http://www.w3.org/Graphics/SVG/1.1/DTD/svg11.dtd">
<svg version="1.1" id="icon-calendar" xmlns="http://www.w3.org/2000/svg" xmlns:xlink="http://www.w3.org/1999/xlink" viewBox="0 0 24 24">
   <path fill-rule="evenodd" d="M7 2a1 1 0 0 1 1 1v1h8V3a1 1 0 1 1 2 0v1.126c1.725.444 3 2.01 3 3.874v10a4 4 0 0 1-4 4H7a4 4 0 0 1-4-4V8a4.002 4.002 0 0 1 3-3.874V3a1 1 0 0 1 1-1zm0 4a2 2 0 0 0-2 2v1h14V8a2 2 0 0 0-2-2H7zm12 5H5v7a2 2 0 0 0 2 2h10a2 2 0 0 0 2-2v-7z" clip-rule="evenodd" />
</svg>
