<?xml version="1.0" encoding="iso-8859-1"?>
<!DOCTYPE svg PUBLIC "-//W3C//DTD SVG 1.1//EN" "http://www.w3.org/Graphics/SVG/1.1/DTD/svg11.dtd">
<svg version="1.1" id="icon-company" xmlns="http://www.w3.org/2000/svg" xmlns:xlink="http://www.w3.org/1999/xlink" viewBox="0 0 24 24">
  <path d="M14,8h1a1,1,0,0,0,0-2H14a1,1,0,0,0,0,2Zm0,4h1a1,1,0,0,0,0-2H14a1,1,0,0,0,0,2ZM9,8h1a1,1,0,0,0,0-2H9A1,1,0,0,0,9,8Zm0,4h1a1,1,0,0,0,0-2H9a1,1,0,0,0,0,2Zm12,8H20V3a1,1,0,0,0-1-1H5A1,1,0,0,0,4,3V20H3a1,1,0,0,0,0,2H21a1,1,0,0,0,0-2Zm-8,0H11V16h2Zm5,0H15V15a1,1,0,0,0-1-1H10a1,1,0,0,0-1,1v5H6V4H18Z" />
</svg>
