<?xml version="1.0" encoding="iso-8859-1"?>
<!DOCTYPE svg PUBLIC "-//W3C//DTD SVG 1.1//EN" "http://www.w3.org/Graphics/SVG/1.1/DTD/svg11.dtd">
<svg version="1.1" id="icon-exclamation-triangle" xmlns="http://www.w3.org/2000/svg" xmlns:xlink="http://www.w3.org/1999/xlink" viewBox="0 0 24 24">
  <path d="M12,16a1,1,0,1,0,1,1A1,1,0,0,0,12,16Zm10.67,1.47-8.05-14a3,3,0,0,0-5.24,0l-8,14A3,3,0,0,0,3.94,22H20.06a3,3,0,0,0,2.61-4.53Zm-1.73,2a1,1,0,0,1-.88.51H3.94a1,1,0,0,1-.88-.51,1,1,0,0,1,0-1l8-14a1,1,0,0,1,1.78,0l8.05,14A1,1,0,0,1,20.94,19.49ZM12,8a1,1,0,0,0-1,1v4a1,1,0,0,0,2,0V9A1,1,0,0,0,12,8Z" fill="#ff0a0a" />
</svg>
