<?xml version="1.0" encoding="iso-8859-1"?>
<!DOCTYPE svg PUBLIC "-//W3C//DTD SVG 1.1//EN" "http://www.w3.org/Graphics/SVG/1.1/DTD/svg11.dtd">
<svg version="1.1" id="icon-info-circle" xmlns="http://www.w3.org/2000/svg" xmlns:xlink="http://www.w3.org/1999/xlink" viewBox="0 0 24 24">
  <path fill-rule="evenodd" d="M2 12C2 6.477 6.477 2 12 2s10 4.477 10 10-4.477 10-10 10S2 17.523 2 12Zm10-8a8 8 0 1 0 0 16 8 8 0 0 0 0-16Zm-1.5 3.75a1.75 1.75 0 1 1 3.5 0 1.75 1.75 0 0 1-3.5 0Zm2.118 2.963a1 1 0 0 1 .357 1.01l-.816 3.58.68-.34a1 1 0 1 1 .894 1.789l-1.355.677c-1.241.62-2.645-.482-2.337-1.834l.514-2.255-.108.054a1 1 0 1 1-.894-1.788l2-1a1 1 0 0 1 1.065.107Z" clip-rule="evenodd" />
</svg>
