<?xml version="1.0" encoding="iso-8859-1"?>
<!DOCTYPE svg PUBLIC "-//W3C//DTD SVG 1.1//EN" "http://www.w3.org/Graphics/SVG/1.1/DTD/svg11.dtd">
<svg version="1.1" id="icon-sign-out" xmlns="http://www.w3.org/2000/svg" xmlns:xlink="http://www.w3.org/1999/xlink" viewBox="0 0 32 32">
  <path d="M 4.820312 2.691406 C 3.757812 2.902344 2.894531 3.785156 2.6875 4.867188 C 2.597656 5.347656 2.601562 23.972656 2.691406 24.464844 C 2.878906 25.484375 3.546875 26.222656 4.601562 26.585938 C 4.835938 26.667969 7.167969 27.613281 9.78125 28.6875 C 12.394531 29.761719 14.566406 30.652344 14.609375 30.667969 C 14.671875 30.695312 14.6875 30.273438 14.6875 28.695312 L 14.6875 26.6875 L 17.515625 26.6875 C 20.933594 26.6875 21.070312 26.660156 21.84375 25.929688 C 22.566406 25.246094 22.6875 24.8125 22.6875 22.828125 L 22.6875 21.3125 L 20 21.3125 L 20 24 L 14.6875 24 L 14.6875 15.984375 L 14.683594 7.96875 L 11.859375 6.914062 C 10.304688 6.335938 8.75 5.753906 8.40625 5.621094 L 7.78125 5.378906 L 13.890625 5.378906 L 20 5.375 L 20 8 L 22.6875 8 L 22.6875 6.511719 C 22.6875 3.96875 22.125 2.996094 20.472656 2.695312 C 20.023438 2.609375 5.242188 2.609375 4.820312 2.691406 M 24.390625 10.265625 L 23.4375 11.21875 L 25.53125 13.3125 L 17.3125 13.3125 L 17.3125 16 L 25.53125 16 L 23.40625 18.125 L 25.3125 20.03125 L 30.6875 14.65625 L 25.34375 9.3125 L 24.390625 10.265625" />
</svg>
