<?xml version="1.0" encoding="iso-8859-1"?>
<!DOCTYPE svg PUBLIC "-//W3C//DTD SVG 1.1//EN" "http://www.w3.org/Graphics/SVG/1.1/DTD/svg11.dtd">
<svg version="1.1" id="icon-sign-in" xmlns="http://www.w3.org/2000/svg" xmlns:xlink="http://www.w3.org/1999/xlink" viewBox="0 0 32 32">
  <path d="M 11.4375 2.710938 C 10.015625 3.019531 9.3125 4.058594 9.3125 5.855469 L 9.3125 6.6875 L 12 6.6875 L 12 5.375 L 18.109375 5.378906 C 21.46875 5.382812 24.191406 5.398438 24.15625 5.410156 C 24.121094 5.425781 22.574219 6.007812 20.71875 6.707031 L 17.34375 7.972656 L 17.328125 15.988281 L 17.3125 24 L 12 24 L 12 22.625 L 9.3125 22.625 L 9.3125 23.496094 C 9.3125 24.746094 9.519531 25.339844 10.171875 25.949219 C 10.933594 26.660156 11.078125 26.6875 14.484375 26.6875 L 17.3125 26.6875 L 17.3125 28.695312 C 17.3125 30.273438 17.328125 30.695312 17.390625 30.671875 C 17.433594 30.652344 19.605469 29.761719 22.21875 28.6875 C 24.832031 27.613281 27.164062 26.667969 27.398438 26.585938 C 28.453125 26.222656 29.121094 25.484375 29.308594 24.464844 C 29.398438 23.972656 29.402344 5.347656 29.3125 4.867188 C 29.101562 3.769531 28.230469 2.898438 27.132812 2.6875 C 26.621094 2.59375 11.886719 2.613281 11.4375 2.710938 M 9.703125 10.265625 L 8.75 11.21875 L 10.84375 13.3125 L 2.625 13.3125 L 2.625 16 L 10.84375 16 L 8.75 18.09375 L 10.6875 20.03125 L 16.03125 14.6875 L 10.65625 9.3125 L 9.703125 10.265625" />
</svg>
