<?xml version="1.0" encoding="iso-8859-1"?>
<!DOCTYPE svg PUBLIC "-//W3C//DTD SVG 1.1//EN" "http://www.w3.org/Graphics/SVG/1.1/DTD/svg11.dtd">
<svg version="1.1" id="icon-trash" xmlns="http://www.w3.org/2000/svg" xmlns:xlink="http://www.w3.org/1999/xlink" viewBox="0 0 24 24">
  <path fill-rule="evenodd" d="M10 4h4v1h-4V4zM8 5V4a2 2 0 0 1 2-2h4a2 2 0 0 1 2 2v1h4a1 1 0 1 1 0 2h-1v13a2 2 0 0 1-2 2H7a2 2 0 0 1-2-2V7H4a1 1 0 0 1 0-2h4zm6 2H7v13h10V7h-3zm-4 3a1 1 0 0 1 1 1v5a1 1 0 1 1-2 0v-5a1 1 0 0 1 1-1zm5 1a1 1 0 1 0-2 0v5a1 1 0 1 0 2 0v-5z" clip-rule="evenodd" />
</svg>
